<?xml version="1.0" encoding="utf-8"?>
<!-- Generator: Adobe Illustrator 19.0.0, SVG Export Plug-In . SVG Version: 6.00 Build 0)  -->
<svg version="1.1" id="Layer_1" xmlns="http://www.w3.org/2000/svg" xmlns:xlink="http://www.w3.org/1999/xlink" x="0px" y="0px"
	 viewBox="0 0 1000 1000" style="enable-background:new 0 0 1000 1000;" xml:space="preserve">
<style type="text/css">
	.st0{stroke:#000000;stroke-miterlimit:10;}
</style>
<path fill="#ffffff" id="XMLID_2_" class="st0" d="M487.4,746.1c-18.1,6.4-37.5,9.9-57.8,9.9s-39.7-3.5-57.8-9.9v-63.4c17,9.8,36.8,15.5,57.8,15.5
	c10,0,19.6-1.3,28.9-3.6h0c10.3-2.6,20-6.6,28.9-11.8c7.9-4.5,15.1-10,21.7-16.2c8.1-7.7,15.1-16.5,20.7-26.2
	c9.8-17,15.5-36.8,15.5-57.8V466.9H371.7v-57.8h210.8c4.6,4,9,8.2,13.2,12.6c2.5,2.6,4.9,5.2,7.3,7.9v152.9
	c0,20.3-3.5,39.7-9.9,57.8c-3.2,9.1-7.2,17.8-11.8,26.2c-6.3,11.4-13.9,22-22.5,31.7c-4.3,4.8-8.8,9.4-13.7,13.7
	C530.4,725.1,506.1,738.6,487.4,746.1"/>
<path fill="#ffffff" id="XMLID_80_" class="st0" d="M501.8,510.3v42.4c-8.9,5.2-18.7,9.2-28.9,11.8h0c-9.2,2.4-18.9,3.6-28.9,3.6H270.5V299.5
	c6.4-7.3,13.2-14.1,20.5-20.5h37.3v231.3H501.8z"/>
</svg>
